Normalized EMG Linear Envelopes
nRows=221
nColumns=4

endheader
time	 med_gas_r	  soleus_r	 tib_ant_r	
3.68726	  0.078178	  0.113794	  0.034442	
3.74976	  0.081935	  0.118556	  0.032497	
3.81226	  0.085206	  0.120859	  0.031114	
3.87475	  0.087173	  0.120439	  0.030536	
3.93725	  0.087139	  0.118484	  0.030710	
3.99974	  0.085012	  0.116109	  0.031369	
4.06224	  0.081828	  0.114297	  0.032134	
4.12474	  0.079455	  0.113784	  0.032778	
4.18723	  0.078513	  0.114308	  0.033213	
4.24973	  0.077854	  0.114588	  0.033221	
4.31222	  0.076978	  0.112809	  0.032508	
4.37472	  0.077095	  0.108326	  0.031138	
4.43722	  0.079545	  0.103846	  0.029684	
4.49971	  0.084530	  0.103534	  0.028788	
4.56221	  0.090692	  0.108458	  0.028550	
4.6247	  0.094958	  0.116039	  0.028565	
4.6872	  0.094189	  0.122893	  0.028654	
4.7497	  0.088351	  0.126070	  0.029109	
4.81219	  0.081065	  0.123443	  0.030054	
4.87469	  0.076409	  0.115483	  0.031191	
4.93718	  0.076228	  0.105959	  0.032269	
4.99968	  0.079994	  0.100016	  0.033244	
5.06218	  0.085393	  0.101626	  0.033964	
5.12467	  0.089451	  0.111291	  0.034052	
5.18717	  0.090450	  0.124263	  0.033296	
5.24966	  0.088694	  0.132217	  0.032104	
5.31216	  0.085607	  0.129783	  0.031264	
5.37466	  0.082994	  0.119735	  0.031306	
5.43715	  0.082310	  0.109860	  0.032311	
5.49965	  0.083245	  0.105375	  0.033912	
5.56214	  0.083739	  0.105920	  0.035358	
5.62464	  0.082194	  0.108248	  0.036051	
5.68714	  0.078905	  0.109427	  0.035961	
5.74963	  0.075334	  0.108587	  0.035435	
5.81213	  0.072939	  0.107869	  0.034891	
5.87462	  0.072605	  0.110586	  0.034470	
5.93712	  0.074278	  0.117491	  0.033883	
5.99962	  0.076816	  0.126213	  0.032995	
6.06211	  0.078902	  0.133336	  0.032088	
6.12461	  0.080459	  0.135631	  0.031310	
6.1871	  0.082246	  0.131531	  0.030584	
6.2496	  0.084146	  0.122657	  0.029957	
6.3121	  0.085190	  0.113184	  0.029383	
6.37459	  0.084925	  0.107743	  0.028640	
6.43709	  0.083669	  0.108828	  0.027894	
6.49958	  0.081999	  0.115156	  0.028191	
6.56208	  0.080518	  0.123058	  0.031665	
6.62458	  0.079750	  0.129295	  0.041130	
6.68707	  0.080272	  0.132761	  0.057607	
6.74957	  0.083138	  0.134633	  0.077358	
6.81206	  0.090008	  0.139121	  0.093867	
6.87456	  0.103013	  0.156583	  0.103743	
6.93706	  0.123311	  0.200301	  0.108385	
6.99955	  0.147712	  0.273171	  0.111031	
7.06205	  0.169992	  0.365389	  0.115250	
7.12454	  0.188722	  0.467336	  0.124264	
7.18704	  0.206331	  0.565171	  0.138433	
7.24954	  0.219528	  0.625855	  0.154163	
7.31203	  0.222569	  0.617284	  0.166656	
7.37453	  0.217747	  0.543565	  0.173341	
7.43702	  0.213695	  0.441574	  0.174657	
7.49952	  0.216709	  0.350166	  0.172692	
7.56202	  0.224459	  0.289317	  0.169449	
7.62451	  0.229199	  0.258933	  0.165980	
7.68701	  0.230922	  0.250531	  0.163253	
7.7495	  0.237748	  0.257266	  0.163045	
7.812	  0.250462	  0.274756	  0.166312	
7.8745	  0.260727	  0.295060	  0.172137	
7.93699	  0.262744	  0.301650	  0.180808	
7.99949	  0.254874	  0.280563	  0.194551	
8.06198	  0.237879	  0.239293	  0.211636	
8.12448	  0.218918	  0.202039	  0.224857	
8.18698	  0.206148	  0.185000	  0.228469	
8.24947	  0.198763	  0.184519	  0.221717	
8.31197	  0.191889	  0.187667	  0.208406	
8.37446	  0.184517	  0.188687	  0.197010	
8.43696	  0.178721	  0.190766	  0.194535	
8.49946	  0.178953	  0.194178	  0.199340	
8.56195	  0.186680	  0.194539	  0.205244	
8.62445	  0.193660	  0.193150	  0.209416	
8.68694	  0.191533	  0.196431	  0.212824	
8.74944	  0.181899	  0.205328	  0.215421	
8.81194	  0.170751	  0.214256	  0.214010	
8.87443	  0.164920	  0.218072	  0.205798	
8.93693	  0.170694	  0.215793	  0.191998	
8.99942	  0.186054	  0.211554	  0.178060	
9.06192	  0.201968	  0.211888	  0.171448	
9.12442	  0.212084	  0.217862	  0.176379	
9.18691	  0.216074	  0.224409	  0.190688	
9.24941	  0.217834	  0.229810	  0.208611	
9.3119	  0.220197	  0.237085	  0.223983	
9.3744	  0.221916	  0.245510	  0.232623	
9.4369	  0.222549	  0.249927	  0.235773	
9.49939	  0.222883	  0.248616	  0.239585	
9.56189	  0.220496	  0.246067	  0.248590	
9.62438	  0.212993	  0.246689	  0.259730	
9.68688	  0.203881	  0.249360	  0.264170	
9.74938	  0.200711	  0.251110	  0.256526	
9.81187	  0.206049	  0.251558	  0.240945	
9.87437	  0.213762	  0.250066	  0.226479	
9.93686	  0.216859	  0.245053	  0.218996	
9.99936	  0.213718	  0.238103	  0.218439	
10.0619	  0.207770	  0.231506	  0.221023	
10.1244	  0.203922	  0.223671	  0.223302	
10.1868	  0.202308	  0.213293	  0.225023	
10.2493	  0.200761	  0.203301	  0.227106	
10.3118	  0.201649	  0.197457	  0.227800	
10.3743	  0.205019	  0.198463	  0.225040	
10.4368	  0.204802	  0.207800	  0.221294	
10.4993	  0.200462	  0.222571	  0.221414	
10.5618	  0.197494	  0.236515	  0.227420	
10.6243	  0.197475	  0.245296	  0.236886	
10.6868	  0.200347	  0.248264	  0.244960	
10.7493	  0.205899	  0.248411	  0.248237	
10.8118	  0.209224	  0.250186	  0.246816	
10.8743	  0.206632	  0.254331	  0.243741	
10.9368	  0.202110	  0.257850	  0.242194	
10.9993	  0.202667	  0.259439	  0.241104	
11.0618	  0.209383	  0.261651	  0.236185	
11.1243	  0.214625	  0.266703	  0.226363	
11.1868	  0.213292	  0.272585	  0.216239	
11.2493	  0.208820	  0.276976	  0.211639	
11.3118	  0.202217	  0.279772	  0.213179	
11.3743	  0.192803	  0.276226	  0.215447	
11.4368	  0.187652	  0.259214	  0.213197	
11.4993	  0.191350	  0.234670	  0.205510	
11.5618	  0.197088	  0.220206	  0.193757	
11.6243	  0.198738	  0.223606	  0.180468	
11.6868	  0.196754	  0.235449	  0.170568	
11.7492	  0.191964	  0.245201	  0.168274	
11.8117	  0.187172	  0.251560	  0.172390	
11.8742	  0.187039	  0.254589	  0.177925	
11.9367	  0.190850	  0.251862	  0.180497	
11.9992	  0.195726	  0.244366	  0.177632	
12.0617	  0.200776	  0.235843	  0.169474	
12.1242	  0.203028	  0.229173	  0.159883	
12.1867	  0.202284	  0.226680	  0.154866	
12.2492	  0.203953	  0.228967	  0.158017	
12.3117	  0.207133	  0.235906	  0.166663	
12.3742	  0.205406	  0.246264	  0.173622	
12.4367	  0.199925	  0.250462	  0.173051	
12.4992	  0.193717	  0.236666	  0.164166	
12.5617	  0.181429	  0.209051	  0.151405	
12.6242	  0.159514	  0.183468	  0.140744	
12.6867	  0.136253	  0.165981	  0.134064	
12.7492	  0.124844	  0.151197	  0.129210	
12.8117	  0.131911	  0.136686	  0.124511	
12.8742	  0.149917	  0.125824	  0.119355	
12.9367	  0.162836	  0.120183	  0.112743	
12.9992	  0.165171	  0.117996	  0.104468	
13.0617	  0.164172	  0.118724	  0.095656	
13.1242	  0.160332	  0.124748	  0.087361	
13.1867	  0.145462	  0.137066	  0.081100	
13.2492	  0.120766	  0.149545	  0.079556	
13.3116	  0.097957	  0.151887	  0.082693	
13.3741	  0.085243	  0.140769	  0.084905	
13.4366	  0.083297	  0.123181	  0.080495	
13.4991	  0.088052	  0.108278	  0.070730	
13.5616	  0.092492	  0.100798	  0.061859	
13.6241	  0.091886	  0.100738	  0.057106	
13.6866	  0.087616	  0.105022	  0.054619	
13.7491	  0.083042	  0.109682	  0.052577	
13.8116	  0.079398	  0.111856	  0.051181	
13.8741	  0.077898	  0.110727	  0.050326	
13.9366	  0.081312	  0.107573	  0.049455	
13.9991	  0.091149	  0.104588	  0.048555	
14.0616	  0.106577	  0.103528	  0.047897	
14.1241	  0.126097	  0.105270	  0.047734	
14.1866	  0.144998	  0.108960	  0.047699	
14.2491	  0.153947	  0.111901	  0.047082	
14.3116	  0.149557	  0.112099	  0.046195	
14.3741	  0.142484	  0.110596	  0.045570	
14.4366	  0.144312	  0.110523	  0.044625	
14.4991	  0.151358	  0.113654	  0.043254	
14.5616	  0.153118	  0.118022	  0.042741	
14.6241	  0.150861	  0.120136	  0.043381	
14.6866	  0.152452	  0.118978	  0.043489	
14.7491	  0.154226	  0.116139	  0.042093	
14.8116	  0.146181	  0.112930	  0.040412	
14.874	  0.130786	  0.109153	  0.039880	
14.9365	  0.121357	  0.104470	  0.040892	
14.999	  0.124750	  0.099634	  0.043013	
15.0615	  0.133284	  0.096392	  0.044407	
15.124	  0.133533	  0.097032	  0.042954	
15.1865	  0.122696	  0.103043	  0.038999	
15.249	  0.112384	  0.112669	  0.034911	
15.3115	  0.114462	  0.120876	  0.032362	
15.374	  0.128826	  0.123649	  0.031594	
15.4365	  0.144168	  0.121682	  0.032142	
15.499	  0.148730	  0.118318	  0.033237	
15.5615	  0.143932	  0.115281	  0.034252	
15.624	  0.142700	  0.112319	  0.035145	
15.6865	  0.150754	  0.109456	  0.036090	
15.749	  0.160031	  0.107606	  0.036857	
15.8115	  0.163720	  0.107209	  0.037045	
15.874	  0.163522	  0.107024	  0.036678	
15.9365	  0.160205	  0.105280	  0.035891	
15.999	  0.153586	  0.102484	  0.034488	
16.0615	  0.149293	  0.101674	  0.032661	
16.124	  0.150091	  0.104913	  0.031329	
16.1865	  0.150533	  0.110559	  0.031096	
16.249	  0.149880	  0.114899	  0.031649	
16.3115	  0.153343	  0.115913	  0.032345	
16.374	  0.158830	  0.114571	  0.032752	
16.4364	  0.161224	  0.113079	  0.032746	
16.4989	  0.162724	  0.112915	  0.032519	
16.5614	  0.164734	  0.114359	  0.032392	
16.6239	  0.164010	  0.117254	  0.032576	
16.6864	  0.162312	  0.121174	  0.033133	
16.7489	  0.163637	  0.124989	  0.033892	
16.8114	  0.165991	  0.127858	  0.034486	
16.8739	  0.166145	  0.129696	  0.034701	
16.9364	  0.162659	  0.129428	  0.034572	
16.9989	  0.154927	  0.125555	  0.034268	
17.0614	  0.148016	  0.119225	  0.034038	
17.1239	  0.147933	  0.113242	  0.034016	
17.1864	  0.150884	  0.108453	  0.034104	
17.2489	  0.151408	  0.104331	  0.034129	
17.3114	  0.152213	  0.101757	  0.033829	
17.3739	  0.154993	  0.102376	  0.032833	
17.4364	  0.156922	  0.105794	  0.031157	
